<svg width="150" height="150" viewBox="0 0 150 150" fill="none" xmlns="http://www.w3.org/2000/svg">
<rect width="150" height="150" rx="75" fill="#3B82F6"/>
<path d="M79.7714 121C94.3 121 103.943 116.376 112.429 108.925C113.843 107.641 115 105.714 115 103.273C115 99.2914 111.529 95.9517 107.543 95.9517C105.614 95.9517 103.943 96.7224 102.786 97.75C96.2286 103.273 89.8 106.356 80.2857 106.356C63.0571 106.356 50.5857 92.0981 50.5857 74.5V74.2431C50.5857 56.645 63.1857 42.5152 80.2857 42.5152C88.9 42.5152 95.5857 45.5981 101.757 50.6077C102.786 51.3785 104.329 52.1492 106.514 52.1492C110.886 52.1492 114.357 48.8094 114.357 44.442C114.357 41.616 112.943 39.4323 111.271 38.1478C103.429 32.1105 94.3 28 80.4143 28C53.1571 28 34 48.9378 34 74.5V74.7569C34 100.576 53.5428 121 79.7714 121Z" fill="white"/>
</svg>
