<svg width="93" height="93" viewBox="0 0 93 93" fill="none" xmlns="http://www.w3.org/2000/svg">
<path d="M40.7356 21.3858C41.2715 21.0633 41.7923 20.7076 42.3674 20.4597C43.131 20.1338 43.9276 19.8913 44.7434 19.7363C46.2019 19.4359 47.7072 19.4436 49.1626 19.7589C51.2943 20.2064 53.2464 21.2719 54.7743 22.822C55.481 23.533 56.0798 24.3433 56.5518 25.2273C57.8832 27.7195 59.2111 30.2129 60.5354 32.7076C61.3317 34.2064 62.1204 35.7082 62.919 37.2062C63.9447 39.1338 64.978 41.0568 66.0037 42.9843C66.8 44.4801 67.5887 45.9804 68.385 47.4761C69.6716 49.8875 70.96 52.2988 72.2502 54.7101C72.7385 55.6271 73.2774 56.5186 73.6714 57.4838C74.1635 58.6895 74.5016 59.9223 74.4805 61.2379C74.4669 62.1166 74.5039 62.9959 74.3054 63.864C73.688 66.5715 72.3158 68.7891 70.0938 70.4853C69.2537 71.1273 68.3442 71.6616 67.3676 72.0044C66.4075 72.3405 65.4007 72.6155 64.3485 72.5628C63.7779 72.5334 63.2043 72.5583 62.6322 72.5568C61.0094 72.5528 59.4187 72.1053 58.0326 71.263C57.1443 70.7355 56.3125 70.1206 55.6023 69.361C54.8815 68.5902 54.2361 67.762 53.738 66.8277C53.0028 65.4502 52.2692 64.0722 51.5371 62.6937C50.4839 60.7165 49.432 58.7387 48.3814 56.7604C47.7776 55.6218 47.1821 54.4795 46.57 53.3454C45.8393 51.989 45.1185 50.6221 44.3894 49.262C43.5079 47.6193 42.6172 45.9811 41.7794 44.3158C41.4821 43.7258 41.2134 43.1267 40.7899 42.6143C38.6653 40.0433 35.9519 38.983 32.646 39.4909C31.4037 39.6816 30.2806 40.1827 29.2495 40.9008C29.2375 40.9098 29.2277 40.9226 29.2148 40.9309C28.9499 41.108 28.6525 41.1321 28.4887 40.9905C28.3506 40.8706 28.2925 40.4735 28.4133 40.2573C28.4706 40.151 28.5287 40.0433 28.5899 39.9385C29.3197 38.6839 30.0239 37.4149 30.8021 36.1882C31.104 35.7059 31.3516 35.1898 31.6829 34.7181C31.9546 34.3307 32.1441 33.8696 32.3871 33.4514C32.9909 32.4137 33.6076 31.3852 34.2129 30.3498C34.7873 29.3702 35.3511 28.3801 35.9247 27.399C36.4983 26.4179 37.0531 25.4541 37.6441 24.4986C38.1211 23.7285 38.786 23.1129 39.408 22.4641C39.7733 22.0813 40.2005 21.7859 40.6058 21.4551L40.7356 21.3858Z" fill="black"/>
<path d="M23.7255 50.7482C24.0757 50.657 24.275 50.3443 24.5844 50.1748C25.2426 49.8002 25.9267 49.4729 26.6314 49.1952C28.2754 48.5753 30.0338 48.3158 31.7872 48.4341C33.6764 48.5543 35.5096 49.1226 37.1347 50.0919C38.6767 50.9961 39.9689 52.1822 40.9516 53.6697C42.4483 55.9348 43.2295 58.4207 43.037 61.1568C42.7774 64.8559 41.1712 67.8436 38.242 70.1329C37.3967 70.795 36.4615 71.3339 35.4644 71.7334C33.9058 72.3566 32.2604 72.6037 30.5743 72.5472C29.8343 72.5127 29.0979 72.4235 28.3711 72.2805C26.7341 71.9928 25.1905 71.3162 23.8704 70.3077C23.5519 70.0643 23.2025 69.8556 22.9443 69.5308C22.7655 69.3048 22.4235 69.2407 22.2884 68.9724C22.0756 68.552 21.699 68.2732 21.4091 67.9228C20.8053 67.1896 20.3434 66.3841 19.9207 65.5416C19.3788 64.4603 19.1539 63.2991 18.9856 62.1198C18.8091 60.834 18.8368 59.5284 19.0678 58.2512C19.0857 58.2218 19.0976 58.1891 19.1028 58.1551C19.108 58.1211 19.1064 58.0864 19.098 58.053C19.2407 57.4781 19.3124 56.8895 19.5418 56.3304C19.8385 55.6055 20.126 54.8791 20.5698 54.2288C20.9246 53.7081 21.2423 53.146 21.6786 52.7021C22.0145 52.3593 22.2575 51.9373 22.6787 51.6472C23.0108 51.4211 23.3089 51.1047 23.6199 50.8259L23.7255 50.7482Z" fill="black"/>
</svg>
