<svg width="106" height="41" viewBox="0 0 106 41" fill="none" xmlns="http://www.w3.org/2000/svg">
<g clip-path="url(#clip0_10387_3842)">
<path d="M49.1053 35.5666H51.8397V25.2523H49.1053V35.5666ZM49.1053 23.6438H51.8397V21.1909H49.1053V23.6438Z" fill="black"/>
<path d="M53.6017 38.9444H56.3361V34.4005H56.3764C56.9594 35.2851 57.9044 35.8682 59.352 35.8682C62.006 35.8682 63.8155 33.7571 63.8155 30.4195C63.8155 27.2025 62.0663 24.9708 59.3319 24.9708C57.9245 24.9708 56.9594 25.6343 56.2959 26.539H56.2356V25.2523H53.6017V38.9444ZM58.769 33.5962C57.1404 33.5962 56.2758 32.3698 56.2758 30.4999C56.2758 28.6502 56.9594 27.1824 58.6684 27.1824C60.3573 27.1824 61.0409 28.5496 61.0409 30.4999C61.0409 32.4502 60.1563 33.5962 58.769 33.5962Z" fill="black"/>
<path d="M69.2701 35.8682C71.8436 35.8682 73.6129 34.6216 73.6129 32.5507C73.6129 30.138 71.7029 29.6555 69.9738 29.2936C68.506 28.992 67.1388 28.9115 67.1388 28.0269C67.1388 27.283 67.8425 26.8808 68.9082 26.8808C70.0743 26.8808 70.778 27.283 70.8986 28.3888H73.3717C73.1706 26.3179 71.6627 24.9708 68.9484 24.9708C66.596 24.9708 64.7462 26.0364 64.7462 28.2681C64.7462 30.52 66.5558 31.0227 68.4055 31.3846C69.8129 31.666 71.1198 31.7666 71.1198 32.7518C71.1198 33.4756 70.4362 33.938 69.2298 33.938C68.0034 33.938 67.1589 33.4153 66.978 32.229H64.4446C64.6055 34.4206 66.2743 35.8682 69.2701 35.8682Z" fill="black"/>
<path d="M83.9946 35.5666V25.2523H81.2602V31.2036C81.2602 32.5708 80.4761 33.5359 79.1893 33.5359C78.0232 33.5359 77.4803 32.8724 77.4803 31.666V25.2523H74.766V32.1285C74.766 34.3803 76.0528 35.8481 78.3449 35.8481C79.7925 35.8481 80.5967 35.3052 81.3005 34.3602H81.3608V35.5666H83.9946Z" fill="black"/>
<path d="M85.7633 35.5666H88.4978V29.575C88.4978 28.2078 89.2417 27.3232 90.3475 27.3232C91.3528 27.3232 91.9359 27.9263 91.9359 29.0925V35.5666H94.6703V29.575C94.6703 28.2078 95.374 27.3232 96.52 27.3232C97.5253 27.3232 98.1084 27.9263 98.1084 29.0925V35.5666H100.843V28.6301C100.843 26.3782 99.6163 24.9708 97.4449 24.9708C96.138 24.9708 95.0523 25.6544 94.3486 26.7803H94.3084C93.8057 25.6946 92.7602 24.9708 91.4533 24.9708C90.0258 24.9708 89.0205 25.6946 88.4575 26.6396H88.3972V25.2523H85.7633V35.5666Z" fill="black"/>
<path d="M49.1455 17.9005H51.8799V3.52479H49.1455V17.9005Z" fill="black"/>
<path d="M58.566 18.2021C61.7629 18.2021 63.9544 15.8296 63.9544 12.7534C63.9544 9.6772 61.7629 7.30471 58.566 7.30471C55.3692 7.30471 53.1776 9.6772 53.1776 12.7534C53.1776 15.8296 55.3692 18.2021 58.566 18.2021ZM58.566 16.1111C56.8771 16.1111 55.9523 14.764 55.9523 12.7534C55.9523 10.7428 56.8771 9.37562 58.566 9.37562C60.2348 9.37562 61.1798 10.7428 61.1798 12.7534C61.1798 14.764 60.2348 16.1111 58.566 16.1111Z" fill="black"/>
<path d="M69.7694 21.4191C71.2975 21.4191 72.6245 21.0572 73.489 20.2529C74.253 19.5492 74.7155 18.564 74.7155 17.1164V7.58619H72.0816V8.67191H72.0414C71.4181 7.80735 70.4731 7.30471 69.1863 7.30471C66.5726 7.30471 64.7228 9.27509 64.7228 12.3513C64.7228 15.4677 66.9747 17.2772 69.2668 17.2772C70.5737 17.2772 71.3578 16.7545 71.961 16.0709H72.0213V17.1968C72.0213 18.6042 71.2774 19.3481 69.7292 19.3481C68.4625 19.3481 67.8795 18.8455 67.6583 18.2021H64.944C65.2255 20.2127 66.9546 21.4191 69.7694 21.4191ZM69.7292 15.0857C68.3218 15.0857 67.3969 14.0603 67.3969 12.3111C67.3969 10.582 68.3218 9.49625 69.7091 9.49625C71.3578 9.49625 72.162 10.783 72.162 12.291C72.162 13.819 71.4583 15.0857 69.7292 15.0857Z" fill="black"/>
<path d="M81.3619 18.2021C84.5587 18.2021 86.7503 15.8296 86.7503 12.7534C86.7503 9.6772 84.5587 7.30471 81.3619 7.30471C78.1651 7.30471 75.9735 9.6772 75.9735 12.7534C75.9735 15.8296 78.1651 18.2021 81.3619 18.2021ZM81.3619 16.1111C79.673 16.1111 78.7481 14.764 78.7481 12.7534C78.7481 10.7428 79.673 9.37562 81.3619 9.37562C83.0307 9.37562 83.9757 10.7428 83.9757 12.7534C83.9757 14.764 83.0307 16.1111 81.3619 16.1111Z" fill="black"/>
<path d="M89.1472 13.9598H100.969V11.6074H89.1472V13.9598Z" fill="black"/>
<path d="M101.836 23.5002C101.836 23.0375 102.211 22.6624 102.674 22.6624H104.349C104.812 22.6624 105.187 23.0375 105.187 23.5002C105.187 23.9628 104.812 24.3379 104.349 24.3379H102.674C102.211 24.3379 101.836 23.9628 101.836 23.5002Z" fill="black"/>
<path fill-rule="evenodd" clip-rule="evenodd" d="M21.491 0.328499C32.5367 0.328499 41.491 9.2828 41.491 20.3285C41.491 31.3742 32.5367 40.3285 21.491 40.3285C10.4453 40.3285 1.49097 31.3742 1.49097 20.3285C1.49097 9.2828 10.4453 0.328499 21.491 0.328499ZM20.7681 1.82509C18.4865 2.14619 16.3139 3.97958 14.6274 7.0459C14.1382 7.93533 13.6968 8.91796 13.3121 9.97894C15.6053 9.40267 18.1244 9.06292 20.7681 9.01037V1.82509ZM11.6218 10.4593C12.1001 8.95808 12.6853 7.5769 13.3606 6.34915C14.1966 4.82909 15.1888 3.51645 16.3067 2.50827C10.2278 4.27373 5.43619 9.06529 3.67074 15.1442C4.67891 14.0263 5.99156 13.0341 7.51162 12.1981C8.73937 11.5228 10.1205 10.9376 11.6218 10.4593ZM11.1414 12.1496C10.5651 14.4428 10.2254 16.9619 10.1728 19.6056H2.98755C3.30866 17.3239 5.14205 15.1513 8.20837 13.4649C9.0978 12.9757 10.0804 12.5343 11.1414 12.1496ZM11.619 19.6056C11.6787 16.7205 12.094 14.0119 12.7812 11.6187C15.1744 10.9315 17.8831 10.5161 20.7681 10.4564V13.5793C19.6918 16.3347 17.4966 18.5297 14.7411 19.6056H11.619ZM10.1728 21.0514H2.98755C3.30866 23.3331 5.14205 25.5056 8.20837 27.1921C9.0978 27.6813 10.0804 28.1227 11.1414 28.5074C10.5651 26.2142 10.2254 23.6951 10.1728 21.0514ZM12.7812 29.0383C12.094 26.6451 11.6787 23.9365 11.619 21.0514H14.7411C17.4966 22.1273 19.6919 24.3223 20.7681 27.0777V30.2006C17.8831 30.1409 15.1744 29.7255 12.7812 29.0383ZM11.6218 30.1977C10.1205 29.7194 8.73937 29.1342 7.51162 28.4589C5.99156 27.6229 4.67891 26.6307 3.67074 25.5128C5.43619 31.5917 10.2278 36.3833 16.3067 38.1487C15.1888 37.1405 14.1966 35.8279 13.3606 34.3078C12.6853 33.0801 12.1001 31.6989 11.6218 30.1977ZM20.7681 38.8319C18.4865 38.5108 16.3139 36.6774 14.6274 33.6111C14.1382 32.7217 13.6968 31.739 13.3121 30.6781C15.6053 31.2543 18.1244 31.5941 20.7681 31.6466V38.8319ZM26.6753 38.1487C27.7932 37.1405 28.7854 35.8279 29.6215 34.3078C30.2967 33.0801 30.8819 31.6989 31.3602 30.1977C32.8614 29.7194 34.2426 29.1342 35.4704 28.4589C36.9904 27.6229 38.3031 26.6307 39.3112 25.5128C37.5458 31.5917 32.7542 36.3833 26.6753 38.1487ZM29.6699 30.6781C29.2852 31.739 28.8438 32.7217 28.3546 33.6111C26.6682 36.6774 24.4956 38.5108 22.2139 38.8319V31.6466C24.8576 31.5941 27.3767 31.2543 29.6699 30.6781ZM31.8406 28.5074C32.9015 28.1227 33.8842 27.6813 34.7736 27.1921C37.8399 25.5056 39.6733 23.3331 39.9944 21.0514H32.8091C32.7566 23.6951 32.4168 26.2142 31.8406 28.5074ZM31.3631 21.0514C31.3034 23.9365 30.888 26.6451 30.2008 29.0383C27.8076 29.7255 25.099 30.1409 22.2139 30.2006V27.08C23.2898 24.3236 25.4855 22.1276 28.2418 21.0514H31.3631ZM32.8091 19.6056H39.9944C39.6733 17.3239 37.8399 15.1513 34.7736 13.4649C33.8842 12.9757 32.9015 12.5343 31.8406 12.1496C32.4168 14.4428 32.7566 16.9619 32.8091 19.6056ZM30.2008 11.6187C30.888 14.0119 31.3034 16.7205 31.3631 19.6056H28.2418C25.4855 18.5294 23.2898 16.3334 22.2139 13.577V10.4564C25.099 10.5161 27.8076 10.9315 30.2008 11.6187ZM31.3602 10.4593C32.8614 10.9376 34.2426 11.5228 35.4704 12.1981C36.9904 13.0341 38.3031 14.0263 39.3112 15.1442C37.5458 9.06529 32.7542 4.27373 26.6753 2.50827C27.7932 3.51645 28.7854 4.82909 29.6215 6.34915C30.2967 7.5769 30.8819 8.95808 31.3602 10.4593ZM22.2139 1.82509C24.4956 2.14619 26.6682 3.97958 28.3546 7.0459C28.8438 7.93534 29.2852 8.91796 29.6699 9.97894C27.3767 9.40267 24.8576 9.06292 22.2139 9.01037V1.82509Z" fill="black"/>
</g>
<defs>
<clipPath id="clip0_10387_3842">
<rect width="105" height="40" fill="white" transform="translate(0.96936 0.328499)"/>
</clipPath>
</defs>
</svg>
